<?xml version="1.0" encoding="UTF-8" standalone="no"?>
<svg
   xmlns:dc="http://purl.org/dc/elements/1.1/"
   xmlns:cc="http://creativecommons.org/ns#"
   xmlns:rdf="http://www.w3.org/1999/02/22-rdf-syntax-ns#"
   xmlns:svg="http://www.w3.org/2000/svg"
   xmlns="http://www.w3.org/2000/svg"
   xmlns:sodipodi="http://sodipodi.sourceforge.net/DTD/sodipodi-0.dtd"
   xmlns:inkscape="http://www.inkscape.org/namespaces/inkscape"
   version="1.1"
   id="Layer_1"
   x="0px"
   y="0px"
   viewBox="0 0 1000 1000"
   xml:space="preserve"
   sodipodi:docname="icon.svg"
   width="1000"
   height="1000"
   inkscape:version="1.0.2 (e86c870879, 2021-01-15)"><metadata
   id="metadata678"><rdf:RDF><cc:Work
       rdf:about=""><dc:format>image/svg+xml</dc:format><dc:type
         rdf:resource="http://purl.org/dc/dcmitype/StillImage" /><dc:title></dc:title></cc:Work></rdf:RDF></metadata><defs
   id="defs676">
	
	
	
	
	
	
	
</defs><sodipodi:namedview
   pagecolor="#ffffff"
   bordercolor="#666666"
   borderopacity="1"
   objecttolerance="10"
   gridtolerance="10"
   guidetolerance="10"
   inkscape:pageopacity="0"
   inkscape:pageshadow="2"
   inkscape:window-width="1366"
   inkscape:window-height="714"
   id="namedview674"
   showgrid="false"
   showguides="true"
   inkscape:guide-bbox="true"
   inkscape:snap-page="false"
   inkscape:snap-object-midpoints="true"
   inkscape:zoom="0.24488726"
   inkscape:cx="494.9652"
   inkscape:cy="378.25973"
   inkscape:window-x="0"
   inkscape:window-y="0"
   inkscape:window-maximized="1"
   inkscape:current-layer="Layer_1"><sodipodi:guide
     position="87.78626,498.0916"
     orientation="0,-1"
     id="guide687" /><sodipodi:guide
     position="503.72351,498.0916"
     orientation="1,0"
     id="guide689" /></sodipodi:namedview>

<g
   id="g655">
</g>
<path
   style="clip-rule:evenodd;fill-rule:evenodd;stroke-width:4.54299"
   d="m 241.35835,233.80254 100.6018,-45.14842 v 0 l 30.40055,-13.59741 83.7015,-37.55182 v 73.73456 24.1633 195.06234 c 22.3004,-32.19998 72.5013,-72.35215 134.80242,-72.35215 144.40259,0 150.4027,109.06384 150.4027,131.43581 v 323.38659 c -16.5003,-6.5698 -33.90061,-14.11748 -52.50094,-22.85646 -56.70102,-26.47474 -111.202,-57.92349 -159.90287,-88.87442 V 545.66312 c 0,-34.89367 -10.8002,-51.48706 -37.00067,-51.48706 -25.20045,0 -35.80064,22.63865 -35.80064,58.77694 v 99.68036 C 441.56194,642.52086 428.0617,632.83063 415.66148,623.79828 345.26021,572.51125 288.35919,519.14837 241.35835,465.45655 Z m 451.10809,608.1679 H 528.86351 v -72.20102 c 45.40081,24.35001 92.10165,46.21967 139.7025,63.871 7.60014,2.8137 15.60028,5.59187 23.90043,8.33002 z M 456.0622,728.12816 V 841.97489 H 241.35835 V 576.87628 c 32.70057,27.78604 68.80123,55.31427 108.90195,82.74026 34.00061,23.22541 69.30125,46.39747 105.8019,68.51162 z"
   id="path661" /><path
   style="clip-rule:evenodd;fill:#01abe8;fill-rule:evenodd;stroke-width:4.54299"
   d="M 241.35835,465.45655 C 207.65774,426.98017 178.95723,388.33931 154.15678,350.17851 62.55514,198.54882 94.655716,136.83812 271.25888,169.29592 c 20.90038,3.84053 44.80081,10.49033 70.70127,19.35376 L 372.3607,175.05226 C 314.65966,152.36915 260.65869,136.08248 215.35788,129.29487 25.954483,100.94876 -53.486942,179.55953 51.154935,360.0332 98.455784,435.49689 159.05687,506.98225 241.35835,576.86741 Z M 456.0622,235.40722 c 111.502,51.88711 234.0042,124.19925 317.9057,186.73227 12.70023,9.44129 25.70047,19.10041 39.0007,29.20402 3.10006,-4.32949 6.40012,-8.52561 9.80018,-12.58395 C 801.16839,421.83279 780.26802,406.30177 760.86767,391.89091 674.56612,327.5532 563.36413,261.46411 456.0622,211.24389 Z m 236.40424,606.56322 c 92.00165,30.23528 224.60403,53.65181 310.30556,25.64352 C 892.17003,855.24337 828.86889,847.8557 741.26732,812.9309 v 29.03954 z"
   id="path667" />
</svg>
