<?xml version="1.0" encoding="UTF-8" standalone="no"?>
<svg
   xmlns:dc="http://purl.org/dc/elements/1.1/"
   xmlns:cc="http://creativecommons.org/ns#"
   xmlns:rdf="http://www.w3.org/1999/02/22-rdf-syntax-ns#"
   xmlns:svg="http://www.w3.org/2000/svg"
   xmlns="http://www.w3.org/2000/svg"
   xmlns:sodipodi="http://sodipodi.sourceforge.net/DTD/sodipodi-0.dtd"
   xmlns:inkscape="http://www.inkscape.org/namespaces/inkscape"
   version="1.1"
   id="Layer_1"
   x="0px"
   y="0px"
   viewBox="0 0 1000 1000"
   xml:space="preserve"
   sodipodi:docname="icon2.svg"
   width="1000"
   height="1000"
   inkscape:version="1.0.2 (e86c870879, 2021-01-15)"><metadata
   id="metadata678"><rdf:RDF><cc:Work
       rdf:about=""><dc:format>image/svg+xml</dc:format><dc:type
         rdf:resource="http://purl.org/dc/dcmitype/StillImage" /><dc:title></dc:title></cc:Work></rdf:RDF></metadata><defs
   id="defs676">
	
	
	
	
	
	
	
</defs><sodipodi:namedview
   pagecolor="#ffffff"
   bordercolor="#666666"
   borderopacity="1"
   objecttolerance="10"
   gridtolerance="10"
   guidetolerance="10"
   inkscape:pageopacity="0"
   inkscape:pageshadow="2"
   inkscape:window-width="1366"
   inkscape:window-height="714"
   id="namedview674"
   showgrid="false"
   showguides="true"
   inkscape:guide-bbox="true"
   inkscape:snap-page="false"
   inkscape:snap-object-midpoints="true"
   inkscape:zoom="0.48977451"
   inkscape:cx="556.23797"
   inkscape:cy="525.12808"
   inkscape:window-x="0"
   inkscape:window-y="0"
   inkscape:window-maximized="1"
   inkscape:current-layer="layer2"
   inkscape:object-paths="true"><sodipodi:guide
     position="87.78626,498.0916"
     orientation="0,-1"
     id="guide687" /><sodipodi:guide
     position="503.72351,498.0916"
     orientation="1,0"
     id="guide689" /></sodipodi:namedview>

<g
   id="g655">
</g>

<g
   inkscape:groupmode="layer"
   id="layer2"
   inkscape:label="Layer 2"><rect
     style="fill:#ffffff"
     id="rect791"
     width="970.88019"
     height="970.88019"
     x="18.283419"
     y="16.468307"
     ry="119.07584" /></g><g
   inkscape:groupmode="layer"
   id="layer1"
   inkscape:label="Layer 1"><path
     style="clip-rule:evenodd;fill-rule:evenodd;stroke-width:4.19336"
     d="m 261.54987,254.43585 92.85953,-41.67382 v 0 l 28.06094,-12.55096 77.25987,-34.66185 v 68.05998 22.30371 180.05043 c 20.58417,-29.72189 66.92163,-66.78396 124.42808,-66.78396 133.28948,0 138.82782,100.67033 138.82782,121.32057 v 298.4989 C 707.75566,782.93466 691.69448,775.96784 674.52556,767.90141 622.18824,743.46416 571.88163,714.43569 526.92876,685.86673 V 542.29578 c 0,-32.20827 -9.96902,-47.52464 -34.15311,-47.52464 -23.26104,0 -33.04544,20.89639 -33.04544,54.25349 v 92.00901 c -13.38433,-9.33425 -25.8456,-18.27872 -37.2915,-26.61595 -64.98322,-47.34 -117.50517,-96.5961 -160.88884,-146.15582 z M 677.9409,815.79942 H 526.92876 v -66.64446 c 41.90679,22.47604 85.01355,42.66262 128.95111,58.95552 7.0152,2.59716 14.39961,5.16152 22.06103,7.68894 z M 459.73021,710.71839 V 815.80353 H 261.54987 V 571.10679 c 30.18395,25.64764 63.50632,51.05731 100.5209,76.37261 31.38394,21.43799 63.96786,42.82674 97.65944,63.23899 z"
     id="path661" /><path
     style="clip-rule:evenodd;fill:#01abe8;fill-rule:evenodd;stroke-width:4.19336"
     d="M 261.54987,468.26187 C 230.44284,432.74661 203.95111,397.07954 181.05929,361.85558 96.507273,221.89524 126.13741,164.93377 289.14927,194.89363 c 19.29189,3.54496 41.35296,9.683 65.26013,17.8643 l 28.06094,-12.55097 C 329.20994,179.26953 279.36486,164.23628 237.55038,157.97104 62.723383,131.80643 -10.604262,204.36736 85.984427,370.95185 129.64502,440.60789 185.58227,506.59177 261.54987,571.0986 Z M 459.73021,255.91703 c 102.92085,47.8939 215.9953,114.64093 293.43978,172.36144 11.72289,8.71469 23.7226,17.63045 35.99922,26.95649 2.86152,-3.99629 5.90765,-7.86948 9.04599,-11.61549 -19.93805,-15.6241 -39.22987,-29.95985 -57.13722,-43.26166 C 661.4182,340.9715 558.77423,279.9686 459.73021,233.6133 Z M 677.9409,815.79942 c 84.9212,27.90839 207.31858,49.52279 286.42455,23.67001 C 862.2754,828.05087 803.84584,821.23175 722.98611,788.99475 v 26.80467 z"
     id="path667" /></g></svg>
