<?xml version="1.0" encoding="UTF-8" standalone="no"?>
<svg
   xmlns:osb="http://www.openswatchbook.org/uri/2009/osb"
   xmlns:dc="http://purl.org/dc/elements/1.1/"
   xmlns:cc="http://creativecommons.org/ns#"
   xmlns:rdf="http://www.w3.org/1999/02/22-rdf-syntax-ns#"
   xmlns:svg="http://www.w3.org/2000/svg"
   xmlns="http://www.w3.org/2000/svg"
   xmlns:sodipodi="http://sodipodi.sourceforge.net/DTD/sodipodi-0.dtd"
   xmlns:inkscape="http://www.inkscape.org/namespaces/inkscape"
   version="1.1"
   width="1000"
   height="340.57199"
   viewBox="0 0 1000 340.57199"
   xml:space="preserve"
   id="svg252"
   sodipodi:docname="logo_dark.svg"
   inkscape:version="1.0.2 (e86c870879, 2021-01-15)"><metadata
   id="metadata256"><rdf:RDF><cc:Work
       rdf:about=""><dc:format>image/svg+xml</dc:format><dc:type
         rdf:resource="http://purl.org/dc/dcmitype/StillImage" /><dc:title></dc:title></cc:Work></rdf:RDF></metadata><sodipodi:namedview
   pagecolor="#000000"
   bordercolor="#666666"
   borderopacity="1"
   objecttolerance="10"
   gridtolerance="10"
   guidetolerance="10"
   inkscape:pageopacity="0"
   inkscape:pageshadow="2"
   inkscape:window-width="1366"
   inkscape:window-height="714"
   id="namedview254"
   showgrid="false"
   inkscape:showpageshadow="false"
   inkscape:pagecheckerboard="true"
   showborder="true"
   borderlayer="true"
   inkscape:snap-object-midpoints="true"
   showguides="true"
   inkscape:guide-bbox="true"
   inkscape:snap-others="true"
   inkscape:zoom="0.48518519"
   inkscape:cx="443.26138"
   inkscape:cy="405.62969"
   inkscape:window-x="0"
   inkscape:window-y="0"
   inkscape:window-maximized="1"
   inkscape:current-layer="layer1"><sodipodi:guide
     position="500.22781,324.28346"
     orientation="1,0"
     id="guide331" /><sodipodi:guide
     position="-165.95629,249.01658"
     orientation="0,-1"
     id="guide333" /></sodipodi:namedview>
<desc
   id="desc216">Created with Fabric.js 5.2.4</desc>
<defs
   id="defs218"><linearGradient
   id="linearGradient1201"
   osb:paint="solid"><stop
     style="stop-color:#232323;stop-opacity:1;"
     offset="0"
     id="stop1199" /></linearGradient>
</defs>

<g
   transform="translate(540,540)"
   id="368be932-6775-41f2-b1d0-5f729e8c6ebd">
</g>







<g
   inkscape:groupmode="layer"
   id="layer1"
   inkscape:label="Layer 1"><g
     id="g349"
     transform="matrix(1.0106495,0,0,1.0106495,-0.03823044,-311.67259)"
     style="fill:#232323;fill-opacity:1;stroke:none;stroke-width:0;stroke-linecap:square;stroke-linejoin:round;stroke-miterlimit:7;stroke-dasharray:none;paint-order:markers stroke fill"><g
       transform="matrix(1.98,0,0,1.98,830.39998,471.46108)"
       id="g226"
       style="fill:#232323;fill-opacity:1;stroke:none;stroke-width:0;stroke-linecap:square;stroke-linejoin:round;stroke-miterlimit:7;stroke-dasharray:none;paint-order:markers stroke fill"><polygon
         style="opacity:1;fill:#232323;fill-opacity:1;fill-rule:evenodd;stroke:none;stroke-width:0;stroke-linecap:square;stroke-linejoin:round;stroke-miterlimit:7;stroke-dasharray:none;stroke-dashoffset:0;paint-order:markers stroke fill"
         vector-effect="non-scaling-stroke"
         points="22.97,-79.24 22.97,79.24 -22.97,79.24 -22.97,-57.58 "
         id="polygon224" /></g><g
       transform="matrix(1.98,0,0,1.98,944.01998,541.01108)"
       id="g230"
       style="fill:#232323;fill-opacity:1;stroke:none;stroke-width:0;stroke-linecap:square;stroke-linejoin:round;stroke-miterlimit:7;stroke-dasharray:none;paint-order:markers stroke fill"><polygon
         style="opacity:1;fill:#232323;fill-opacity:1;fill-rule:evenodd;stroke:none;stroke-width:0;stroke-linecap:square;stroke-linejoin:round;stroke-miterlimit:7;stroke-dasharray:none;stroke-dashoffset:0;paint-order:markers stroke fill"
         vector-effect="non-scaling-stroke"
         points="22.97,44.09 -22.97,44.09 -22.97,-44.09 22.97,-44.09 "
         id="polygon228" /></g><g
       transform="matrix(1.98,0,0,1.98,207.55998,471.46108)"
       id="g234"
       style="fill:#232323;fill-opacity:1;stroke:none;stroke-width:0;stroke-linecap:square;stroke-linejoin:round;stroke-miterlimit:7;stroke-dasharray:none;paint-order:markers stroke fill"><path
         style="opacity:1;fill:#232323;fill-opacity:1;fill-rule:evenodd;stroke:none;stroke-width:0;stroke-linecap:square;stroke-linejoin:round;stroke-miterlimit:7;stroke-dasharray:none;stroke-dashoffset:0;paint-order:markers stroke fill"
         vector-effect="non-scaling-stroke"
         d="m 300.97,439.684 21.686,-10.157 h 10e-4 l 6.532,-3.059 18.036,-8.448 v 16.588 5.436 43.883 c 4.793,-7.244 15.602,-16.277 29.036,-16.277 31.093,0 32.386,24.536 32.386,29.569 v 72.752 c -3.553,-1.478 -7.291,-3.176 -11.318,-5.142 -12.202,-5.956 -23.948,-13.031 -34.431,-19.994 v -34.992 c 0,-7.85 -2.315,-11.583 -7.96,-11.583 -5.429,0 -7.712,5.093 -7.712,13.223 v 22.425 c -3.121,-2.275 -6.033,-4.455 -8.703,-6.487 -15.164,-11.538 -27.424,-23.543 -37.551,-35.622 v -52.115 z m 97.172,136.819 H 362.898 V 560.26 c 9.777,5.478 19.846,10.398 30.101,14.369 1.633,0.633 3.352,1.258 5.143,1.874 z m -50.917,-25.611 v 25.612 H 300.97 v -59.639 c 7.044,6.251 14.825,12.444 23.463,18.614 7.315,5.225 14.931,10.438 22.792,15.413 z"
         stroke-linecap="round"
         id="path232"
         transform="translate(-354.81,-497.26)" /></g><g
       transform="matrix(1.98,0,0,1.98,944.01998,393.51108)"
       id="g238"
       style="fill:#232323;fill-opacity:1;stroke:none;stroke-width:0;stroke-linecap:square;stroke-linejoin:round;stroke-miterlimit:7;stroke-dasharray:none;paint-order:markers stroke fill"><path
         style="opacity:1;fill:#232323;fill-opacity:1;fill-rule:evenodd;stroke:none;stroke-width:0;stroke-linecap:square;stroke-linejoin:round;stroke-miterlimit:7;stroke-dasharray:none;stroke-dashoffset:0;paint-order:markers stroke fill"
         vector-effect="non-scaling-stroke"
         d="m 727.027,435.003 c 12.627,0 22.863,10.236 22.863,22.863 0,12.627 -10.236,22.864 -22.863,22.864 -12.627,0 -22.863,-10.237 -22.863,-22.864 0,-12.627 10.236,-22.863 22.863,-22.863 z"
         stroke-linecap="round"
         id="path236"
         transform="translate(-727.03,-457.87)" /></g><g
       transform="matrix(1.98,0,0,1.98,660.54998,522.46108)"
       id="g242"
       style="fill:#232323;fill-opacity:1;stroke:none;stroke-width:0;stroke-linecap:square;stroke-linejoin:round;stroke-miterlimit:7;stroke-dasharray:none;paint-order:markers stroke fill"><path
         style="opacity:1;fill:#232323;fill-opacity:1;fill-rule:evenodd;stroke:none;stroke-width:0;stroke-linecap:square;stroke-linejoin:round;stroke-miterlimit:7;stroke-dasharray:none;stroke-dashoffset:0;paint-order:markers stroke fill"
         vector-effect="non-scaling-stroke"
         d="m 583.758,498.207 c 4.631,0 7.773,3.264 7.773,7.907 v 32.957 c 0,4.643 -3.142,8.312 -7.773,8.312 -4.631,0 -8.256,-3.665 -8.256,-8.312 v -32.957 c 0.001,-4.647 3.626,-7.907 8.256,-7.907 z m 53.006,13.722 c 0,-15.814 -8.468,-28.621 -20.752,-36.069 -9.245,-5.604 -20.656,-7.861 -32.254,-7.861 -11.598,0 -23.009,2.258 -32.254,7.861 -12.284,7.447 -20.752,20.576 -20.752,36.391 v 21.895 c 0,15.814 8.468,28.622 20.752,36.069 9.245,5.604 20.656,7.861 32.254,7.861 11.598,0 23.009,-2.258 32.254,-7.861 12.284,-7.447 20.752,-20.255 20.752,-36.069 z"
         stroke-linecap="round"
         id="path240"
         transform="translate(-583.76,-523.04)" /></g><g
       transform="matrix(1.98,0,0,1.98,212.84998,476.88108)"
       id="g246"
       style="fill:#232323;fill-opacity:1;stroke:none;stroke-width:0;stroke-linecap:square;stroke-linejoin:round;stroke-miterlimit:7;stroke-dasharray:none;paint-order:markers stroke fill"><path
         style="opacity:1;fill:#232323;fill-opacity:1;fill-rule:evenodd;stroke:none;stroke-width:0;stroke-linecap:square;stroke-linejoin:round;stroke-miterlimit:7;stroke-dasharray:none;stroke-dashoffset:0;paint-order:markers stroke fill"
         vector-effect="non-scaling-stroke"
         d="m 300.97,491.799 c -7.258,-8.656 -13.422,-17.349 -18.769,-25.934 -19.726,-34.112 -12.821,-47.995 25.226,-40.693 4.502,0.864 9.647,2.36 15.229,4.354 l 6.532,-3.059 c -12.414,-5.103 -24.049,-8.767 -33.819,-10.294 -40.791,-6.377 -57.893,11.308 -35.361,51.909 10.196,16.977 23.242,33.059 40.961,48.781 v -25.064 z m 46.255,-51.754 c 24.021,11.673 50.391,27.941 68.464,42.009 2.729,2.124 5.542,4.297 8.399,6.57 0.667,-0.974 1.375,-1.918 2.119,-2.831 -4.661,-3.808 -9.164,-7.302 -13.329,-10.544 -18.595,-14.474 -42.552,-29.342 -65.653,-40.64 z m 50.917,136.458 c 19.81,6.802 48.365,12.07 66.826,5.769 -23.817,-2.783 -37.443,-4.445 -56.321,-12.302 v 6.533 z"
         stroke-linecap="round"
         id="path244"
         transform="translate(-357.48,-500)" /></g><g
       transform="matrix(1.98,0,0,1.98,435.38998,522.46108)"
       id="g250"
       style="fill:#232323;fill-opacity:1;stroke:none;stroke-width:0;stroke-linecap:square;stroke-linejoin:round;stroke-miterlimit:7;stroke-dasharray:none;paint-order:markers stroke fill"><path
         style="opacity:1;fill:#232323;fill-opacity:1;fill-rule:evenodd;stroke:none;stroke-width:0;stroke-linecap:square;stroke-linejoin:round;stroke-miterlimit:7;stroke-dasharray:none;stroke-dashoffset:0;paint-order:markers stroke fill"
         vector-effect="non-scaling-stroke"
         d="m 469.958,498.207 c 4.631,0 7.773,3.264 7.773,7.907 v 32.957 c 0,4.643 -3.142,8.312 -7.773,8.312 -4.631,0 -8.256,-3.665 -8.256,-8.312 v -32.957 c 0,-4.647 3.625,-7.907 8.256,-7.907 z m 53.006,14.043 c 0,-15.814 -8.468,-28.943 -20.751,-36.391 -9.245,-5.604 -20.657,-7.861 -32.254,-7.861 -11.597,0 -23.009,2.258 -32.254,7.861 -12.285,7.447 -20.752,20.254 -20.752,36.069 v 22.216 c 0,15.814 8.468,28.622 20.752,36.069 9.245,5.604 20.656,7.861 32.254,7.861 11.597,0 23.009,-2.258 32.254,-7.861 12.284,-7.447 20.751,-20.255 20.751,-36.069 z"
         stroke-linecap="round"
         id="path248"
         transform="translate(-469.96,-523.04)" /></g></g></g></svg>
