<?xml version="1.0" encoding="UTF-8" standalone="no" ?>
<!DOCTYPE svg PUBLIC "-//W3C//DTD SVG 1.1//EN" "http://www.w3.org/Graphics/SVG/1.1/DTD/svg11.dtd">
<svg xmlns="http://www.w3.org/2000/svg" xmlns:xlink="http://www.w3.org/1999/xlink" version="1.1" width="1080" height="1080" viewBox="0 0 1080 1080" xml:space="preserve">
<desc>Created with Fabric.js 5.2.4</desc>
<defs>
</defs>
<g transform="matrix(1 0 0 1 540 540)" id="e4f31f56-3116-4c33-b212-b14d0f7c0e6a"  >
<rect style="stroke: none; stroke-width: 1; stroke-dasharray: none; stroke-linecap: butt; stroke-dashoffset: 0; stroke-linejoin: miter; stroke-miterlimit: 4; fill: rgb(255,255,255); fill-rule: nonzero; opacity: 1; visibility: hidden;" vector-effect="non-scaling-stroke"  x="-540" y="-540" rx="0" ry="0" width="1080" height="1080" />
</g>
<g transform="matrix(1 0 0 1 540 540)" id="368be932-6775-41f2-b1d0-5f729e8c6ebd"  >
</g>
<g transform="matrix(1.98 0 0 1.98 875.57 516.83)"  >
<polygon style="stroke: none; stroke-width: 1; stroke-dasharray: none; stroke-linecap: butt; stroke-dashoffset: 0; stroke-linejoin: miter; stroke-miterlimit: 4; fill: rgb(0,0,0); fill-rule: evenodd; opacity: 1;" vector-effect="non-scaling-stroke"  points="-22.97,-57.58 22.97,-79.24 22.97,79.24 -22.97,79.24 -22.97,-57.58 " />
</g>
<g transform="matrix(1.98 0 0 1.98 989.19 586.38)"  >
<polygon style="stroke: none; stroke-width: 1; stroke-dasharray: none; stroke-linecap: butt; stroke-dashoffset: 0; stroke-linejoin: miter; stroke-miterlimit: 4; fill: rgb(0,0,0); fill-rule: evenodd; opacity: 1;" vector-effect="non-scaling-stroke"  points="22.97,-44.09 22.97,44.09 -22.97,44.09 -22.97,-44.09 22.97,-44.09 " />
</g>
<g transform="matrix(1.98 0 0 1.98 252.73 516.83)"  >
<path style="stroke: none; stroke-width: 1; stroke-dasharray: none; stroke-linecap: butt; stroke-dashoffset: 0; stroke-linejoin: miter; stroke-miterlimit: 4; fill: rgb(0,0,0); fill-rule: evenodd; opacity: 1;" vector-effect="non-scaling-stroke"  transform=" translate(-354.81, -497.26)" d="M 300.97 439.684 L 322.656 429.52700000000004 L 322.657 429.52700000000004 L 329.18899999999996 426.468 L 347.22499999999997 418.02000000000004 L 347.22499999999997 434.60800000000006 L 347.22499999999997 440.04400000000004 L 347.22499999999997 483.927 C 352.018 476.683 362.82699999999994 467.65000000000003 376.26099999999997 467.65000000000003 C 407.354 467.65000000000003 408.647 492.18600000000004 408.647 497.21900000000005 L 408.647 569.971 C 405.094 568.493 401.356 566.795 397.329 564.829 C 385.127 558.8729999999999 373.38100000000003 551.798 362.898 544.8349999999999 L 362.898 509.8429999999999 C 362.898 501.9929999999999 360.583 498.2599999999999 354.93800000000005 498.2599999999999 C 349.50900000000007 498.2599999999999 347.22600000000006 503.3529999999999 347.22600000000006 511.4829999999999 L 347.22600000000006 533.9079999999999 C 344.1050000000001 531.6329999999999 341.19300000000004 529.4529999999999 338.5230000000001 527.4209999999999 C 323.3590000000001 515.8829999999999 311.0990000000001 503.87799999999993 300.9720000000001 491.7989999999999 L 300.9720000000001 439.684 L 300.97 439.684 z M 398.142 576.503 L 362.898 576.503 L 362.898 560.26 C 372.675 565.7379999999999 382.744 570.658 392.999 574.629 C 394.632 575.262 396.351 575.887 398.142 576.503 L 398.142 576.503 z M 347.225 550.892 L 347.225 576.504 L 300.97 576.504 L 300.97 516.865 C 308.014 523.116 315.795 529.309 324.43300000000005 535.479 C 331.748 540.704 339.364 545.917 347.225 550.892 L 347.225 550.892 z" stroke-linecap="round" />
</g>
<g transform="matrix(1.98 0 0 1.98 989.19 438.88)"  >
<path style="stroke: none; stroke-width: 1; stroke-dasharray: none; stroke-linecap: butt; stroke-dashoffset: 0; stroke-linejoin: miter; stroke-miterlimit: 4; fill: rgb(1,171,232); fill-rule: evenodd; opacity: 1;" vector-effect="non-scaling-stroke"  transform=" translate(-727.03, -457.87)" d="M 727.027 435.003 C 739.654 435.003 749.8900000000001 445.239 749.8900000000001 457.866 C 749.8900000000001 470.493 739.6540000000001 480.72999999999996 727.027 480.72999999999996 C 714.4000000000001 480.72999999999996 704.164 470.49299999999994 704.164 457.866 C 704.164 445.239 714.4 435.003 727.027 435.003 L 727.027 435.003 z" stroke-linecap="round" />
</g>
<g transform="matrix(1.98 0 0 1.98 705.72 567.83)"  >
<path style="stroke: none; stroke-width: 1; stroke-dasharray: none; stroke-linecap: butt; stroke-dashoffset: 0; stroke-linejoin: miter; stroke-miterlimit: 4; fill: rgb(0,0,0); fill-rule: evenodd; opacity: 1;" vector-effect="non-scaling-stroke"  transform=" translate(-583.76, -523.04)" d="M 583.758 498.207 C 588.389 498.207 591.5310000000001 501.471 591.5310000000001 506.114 L 591.5310000000001 539.071 C 591.5310000000001 543.714 588.389 547.383 583.758 547.383 C 579.1270000000001 547.383 575.5020000000001 543.7180000000001 575.5020000000001 539.071 L 575.5020000000001 506.11400000000003 C 575.503 501.467 579.128 498.207 583.758 498.207 L 583.758 498.207 z M 636.764 511.929 C 636.764 496.11499999999995 628.296 483.308 616.0120000000001 475.85999999999996 C 606.767 470.256 595.3560000000001 467.99899999999997 583.758 467.99899999999997 C 572.16 467.99899999999997 560.749 470.25699999999995 551.504 475.85999999999996 C 539.22 483.30699999999996 530.7520000000001 496.436 530.7520000000001 512.251 L 530.7520000000001 534.146 C 530.7520000000001 549.9599999999999 539.22 562.7679999999999 551.504 570.2149999999999 C 560.749 575.819 572.16 578.0759999999999 583.758 578.0759999999999 C 595.3560000000001 578.0759999999999 606.767 575.8179999999999 616.0120000000001 570.2149999999999 C 628.296 562.7679999999999 636.764 549.9599999999999 636.764 534.146 L 636.764 511.929 L 636.764 511.929 z" stroke-linecap="round" />
</g>
<g transform="matrix(1.98 0 0 1.98 258.02 522.25)"  >
<path style="stroke: none; stroke-width: 1; stroke-dasharray: none; stroke-linecap: butt; stroke-dashoffset: 0; stroke-linejoin: miter; stroke-miterlimit: 4; fill: rgb(1,171,232); fill-rule: evenodd; opacity: 1;" vector-effect="non-scaling-stroke"  transform=" translate(-357.48, -500)" d="M 300.97 491.799 C 293.71200000000005 483.143 287.548 474.45 282.201 465.86499999999995 C 262.475 431.75299999999993 269.38 417.86999999999995 307.427 425.17199999999997 C 311.92900000000003 426.03599999999994 317.074 427.532 322.656 429.52599999999995 L 329.188 426.4669999999999 C 316.774 421.3639999999999 305.139 417.69999999999993 295.36899999999997 416.17299999999994 C 254.57799999999997 409.79599999999994 237.47599999999997 427.48099999999994 260.008 468.08199999999994 C 270.204 485.0589999999999 283.25 501.14099999999996 300.969 516.8629999999999 L 300.969 491.799 L 300.97 491.799 z M 347.225 440.045 C 371.24600000000004 451.718 397.61600000000004 467.986 415.689 482.05400000000003 C 418.418 484.17800000000005 421.231 486.35100000000006 424.088 488.624 C 424.755 487.65000000000003 425.463 486.706 426.20700000000005 485.793 C 421.54600000000005 481.985 417.04300000000006 478.491 412.87800000000004 475.249 C 394.283 460.77500000000003 370.326 445.90700000000004 347.225 434.60900000000004 L 347.225 440.045 L 347.225 440.045 z M 398.142 576.503 C 417.952 583.3050000000001 446.507 588.5730000000001 464.96799999999996 582.272 C 441.15099999999995 579.489 427.525 577.827 408.64699999999993 569.97 L 408.64699999999993 576.503 L 398.142 576.503 L 398.142 576.503 z" stroke-linecap="round" />
</g>
<g transform="matrix(1.98 0 0 1.98 480.56 567.83)"  >
<path style="stroke: none; stroke-width: 1; stroke-dasharray: none; stroke-linecap: butt; stroke-dashoffset: 0; stroke-linejoin: miter; stroke-miterlimit: 4; fill: rgb(0,0,0); fill-rule: evenodd; opacity: 1;" vector-effect="non-scaling-stroke"  transform=" translate(-469.96, -523.04)" d="M 469.958 498.207 C 474.58900000000006 498.207 477.73100000000005 501.471 477.73100000000005 506.114 L 477.73100000000005 539.071 C 477.73100000000005 543.714 474.58900000000006 547.383 469.958 547.383 C 465.327 547.383 461.702 543.7180000000001 461.702 539.071 L 461.702 506.11400000000003 C 461.702 501.467 465.327 498.207 469.958 498.207 L 469.958 498.207 z M 522.964 512.25 C 522.964 496.436 514.4960000000001 483.307 502.2130000000001 475.859 C 492.9680000000001 470.255 481.5560000000001 467.998 469.95900000000006 467.998 C 458.3620000000001 467.998 446.95000000000005 470.256 437.70500000000004 475.859 C 425.42 483.306 416.95300000000003 496.113 416.95300000000003 511.928 L 416.95300000000003 534.144 C 416.95300000000003 549.958 425.42100000000005 562.766 437.70500000000004 570.213 C 446.95000000000005 575.817 458.36100000000005 578.074 469.95900000000006 578.074 C 481.55600000000004 578.074 492.9680000000001 575.8159999999999 502.2130000000001 570.213 C 514.4970000000001 562.766 522.964 549.958 522.964 534.144 L 522.964 512.25 L 522.964 512.25 z" stroke-linecap="round" />
</g>
</svg>